<?xml version="1.0" encoding="UTF-8" standalone="no"?>
<!-- Created with Inkscape (http://www.inkscape.org/) -->

<svg
   xmlns:dc="http://purl.org/dc/elements/1.1/"
   xmlns:cc="http://creativecommons.org/ns#"
   xmlns:rdf="http://www.w3.org/1999/02/22-rdf-syntax-ns#"
   xmlns:svg="http://www.w3.org/2000/svg"
   xmlns="http://www.w3.org/2000/svg"
   xmlns:sodipodi="http://sodipodi.sourceforge.net/DTD/sodipodi-0.dtd"
   xmlns:inkscape="http://www.inkscape.org/namespaces/inkscape"
   version="1.1"
   id="svg114"
   width="500"
   height="500"
   viewBox="0 0 500 500"
   sodipodi:docname="Instagram.svg"
   inkscape:version="0.92.2 (5c3e80d, 2017-08-06)">
  <metadata
     id="metadata120">
    <rdf:RDF>
      <cc:Work
         rdf:about="">
        <dc:format>image/svg+xml</dc:format>
        <dc:type
           rdf:resource="http://purl.org/dc/dcmitype/StillImage" />
        <dc:title />
      </cc:Work>
    </rdf:RDF>
  </metadata>
  <defs
     id="defs118" />
  <sodipodi:namedview
     pagecolor="#ffffff"
     bordercolor="#666666"
     borderopacity="1"
     objecttolerance="10"
     gridtolerance="10"
     guidetolerance="10"
     inkscape:pageopacity="0"
     inkscape:pageshadow="2"
     inkscape:window-width="1920"
     inkscape:window-height="1029"
     id="namedview116"
     showgrid="false"
     inkscape:zoom="0.75445768"
     inkscape:cx="18.98466"
     inkscape:cy="305.35498"
     inkscape:window-x="0"
     inkscape:window-y="27"
     inkscape:window-maximized="1"
     inkscape:current-layer="svg114" />
  <path
     style="fill:#ffffff;stroke-width:0.99229944"
     d="m 157.23695,499.09136 c -23.64087,-0.94118 -40.37401,-3.02965 -54.83944,-6.84455 C 53.893582,479.45513 19.790055,444.96065 7.5114636,396.27303 1.4888613,372.39191 -0.00481519,343.42038 1.1648206e-5,250.58017 0.00522583,155.06267 1.4873939,127.23344 7.877149,102.70325 20.547154,54.0632 55.069179,19.82684 103.86068,7.51396 127.73393,1.48936 156.69595,-0.00481 249.50561,2e-5 c 95.48609,0.005 123.30616,1.48787 147.8283,7.87973 48.62406,12.67417 82.84916,47.20755 95.15799,96.0151 6.01271,23.84191 7.5081,52.95823 7.5081,146.18908 0,94.9727 -1.49074,122.87628 -7.87377,147.38069 -12.67001,48.64006 -47.19203,82.87643 -95.98353,95.18931 -14.59485,3.6831 -29.87273,5.41977 -57.34482,6.51856 -28.5907,1.14348 -152.1875,1.08826 -181.56093,-0.0811 z m 153.28504,-44.54775 c 48.47087,-0.9716 61.6897,-2.08473 76.81068,-6.46807 16.62098,-4.81816 26.32075,-10.28961 37.6205,-21.22103 15.23641,-14.73974 23.36941,-32.5467 26.96204,-59.03253 3.93122,-28.98205 3.93122,-206.49404 0,-235.47609 -2.46406,-18.16581 -8.04025,-34.67617 -15.43739,-45.70806 -4.55515,-6.79347 -15.32682,-17.66409 -22.14149,-22.3449 -11.79384,-8.1009 -27.68225,-13.61639 -46.63532,-16.18894 -28.97252,-3.93253 -206.42613,-3.93253 -235.39865,0 -18.95307,2.57255 -34.841475,8.08804 -46.635345,16.18894 -6.814643,4.68081 -17.586318,15.55143 -22.141462,22.3449 -7.397136,11.03189 -12.973321,27.54225 -15.437394,45.70806 -3.931231,28.98205 -3.931231,206.49404 0,235.47609 2.5717,18.95929 8.085376,34.85293 16.183617,46.65067 4.679272,6.81691 15.546319,17.59211 22.337542,22.14876 11.272136,7.56319 27.657612,13.01972 46.705122,15.55335 20.39975,2.71346 104.159,3.83313 177.20755,2.36885 z m -83.41711,-77.97209 c -52.72542,-9.55102 -94.39806,-51.52789 -103.60916,-104.36563 -1.90781,-10.94382 -1.90781,-33.30007 0,-44.2439 9.27718,-53.21676 51.19206,-95.1454 104.3913,-104.42563 10.94021,-1.90843 33.28912,-1.90843 44.22933,0 53.19924,9.28023 95.11412,51.20887 104.3913,104.42563 1.90781,10.94383 1.90781,33.30008 0,44.2439 -9.27718,53.21674 -51.19206,95.1454 -104.3913,104.42563 -10.55513,1.84127 -34.69331,1.80907 -45.01147,-0.0601 z m 42.24346,-45.57868 c 31.15895,-8.1662 53.31498,-30.361 61.61063,-61.71845 1.27431,-4.81688 1.79488,-10.38281 1.79488,-19.19046 0,-8.80765 -0.52057,-14.37357 -1.79488,-19.19044 -8.31659,-31.43654 -30.34694,-53.47415 -61.77315,-61.79346 -9.35218,-2.47576 -29.01609,-2.47576 -38.36826,0 -10.46709,2.7709 -18.28092,6.2498 -26.95021,11.9989 -17.32807,11.49122 -29.16911,28.42313 -34.82294,49.79456 -2.47494,9.35524 -2.47494,29.02565 0,38.3809 7.80341,29.49678 28.28648,51.33224 56.64993,60.39024 12.30764,3.93048 31.497,4.51436 43.654,1.32821 z M 376.49905,145.99727 c -8.68793,-2.3023 -15.80407,-8.10133 -20.08847,-16.37029 -2.21091,-4.26707 -2.63705,-6.37263 -2.63705,-13.02925 0,-9.26097 2.55396,-15.35807 8.99794,-21.48085 6.32914,-6.01367 11.63061,-8.1708 20.17646,-8.2096 12.61052,-0.0572 22.77216,6.40356 27.9659,17.7809 3.30653,7.24327 3.12904,18.01222 -0.40896,24.81155 -3.08088,5.92086 -8.61046,11.40237 -14.45232,14.3267 -4.65249,2.3289 -14.73361,3.44814 -19.5535,2.17084 z"
     id="path124"
     inkscape:connector-curvature="0" />
</svg>
