<?xml version="1.0" encoding="UTF-8" standalone="no"?>
<svg
   xmlns:dc="http://purl.org/dc/elements/1.1/"
   xmlns:cc="http://creativecommons.org/ns#"
   xmlns:rdf="http://www.w3.org/1999/02/22-rdf-syntax-ns#"
   xmlns:svg="http://www.w3.org/2000/svg"
   xmlns="http://www.w3.org/2000/svg"
   xmlns:sodipodi="http://sodipodi.sourceforge.net/DTD/sodipodi-0.dtd"
   xmlns:inkscape="http://www.inkscape.org/namespaces/inkscape"
   width="500"
   height="500"
   viewBox="0 0 500 500"
   version="1.1"
   id="svg4"
   sodipodi:docname="LinkedIn.svg"
   inkscape:version="0.92.2 (5c3e80d, 2017-08-06)">
  <metadata
     id="metadata10">
    <rdf:RDF>
      <cc:Work
         rdf:about="">
        <dc:format>image/svg+xml</dc:format>
        <dc:type
           rdf:resource="http://purl.org/dc/dcmitype/StillImage" />
        <dc:title></dc:title>
      </cc:Work>
    </rdf:RDF>
  </metadata>
  <defs
     id="defs8" />
  <sodipodi:namedview
     pagecolor="#ffffff"
     bordercolor="#666666"
     borderopacity="1"
     objecttolerance="10"
     gridtolerance="10"
     guidetolerance="10"
     inkscape:pageopacity="0"
     inkscape:pageshadow="2"
     inkscape:window-width="1920"
     inkscape:window-height="1029"
     id="namedview6"
     showgrid="false"
     inkscape:zoom="0.1767767"
     inkscape:cx="-699.96625"
     inkscape:cy="-941.67788"
     inkscape:window-x="0"
     inkscape:window-y="27"
     inkscape:window-maximized="1"
     inkscape:current-layer="svg4" />
  <path
     d="M 395.83333,0 H 104.16667 C 46.645833,0 0,46.645833 0,104.16667 V 395.83333 C 0,453.35417 46.645833,500 104.16667,500 H 395.83333 C 453.375,500 500,453.35417 500,395.83333 V 104.16667 C 500,46.645833 453.375,0 395.83333,0 Z M 166.66667,395.83333 h -62.5 V 166.66667 h 62.5 z M 135.41667,140.25 c -20.125,0 -36.458337,-16.45833 -36.458337,-36.75 0,-20.291667 16.333337,-36.75 36.458337,-36.75 20.125,0 36.45833,16.458333 36.45833,36.75 0,20.29167 -16.3125,36.75 -36.45833,36.75 z m 281.25,255.58333 h -62.5 v -116.75 c 0,-70.16666 -83.33334,-64.85416 -83.33334,0 v 116.75 h -62.5 V 166.66667 h 62.5 v 36.77083 c 29.08334,-53.875 145.83334,-57.85417 145.83334,51.58333 z"
     id="path2"
     inkscape:connector-curvature="0"
     style="stroke-width:20.83333397;fill:#ffffff" />
</svg>
