<?xml version="1.0" encoding="UTF-8" standalone="no"?>
<svg
   xmlns:dc="http://purl.org/dc/elements/1.1/"
   xmlns:cc="http://creativecommons.org/ns#"
   xmlns:rdf="http://www.w3.org/1999/02/22-rdf-syntax-ns#"
   xmlns:svg="http://www.w3.org/2000/svg"
   xmlns="http://www.w3.org/2000/svg"
   viewBox="0 0 500 500"
   height="500"
   width="500"
   id="svg2"
   version="1.1">
  <metadata
     id="metadata8">
    <rdf:RDF>
      <cc:Work
         rdf:about="">
        <dc:format>image/svg+xml</dc:format>
        <dc:type
           rdf:resource="http://purl.org/dc/dcmitype/StillImage" />
        <dc:title></dc:title>
      </cc:Work>
    </rdf:RDF>
  </metadata>
  <defs
     id="defs6" />
  <path
     id="path12"
     d="M 63.28423,453.93172 C 46.013691,452.45135 30.919093,445.34599 19.092088,433.12955 8.8818871,422.58316 2.6549917,409.65771 0.48693396,394.51001 0.02454992,391.27944 0,383.99282 0,249.98927 0,115.98568 0.02454992,108.69906 0.48693396,105.4685 2.2586196,93.090213 6.4333875,82.874423 13.722531,73.080623 16.547626,69.284763 23.231805,62.557173 26.892524,59.825053 36.803981,52.427816 47.319528,48.14875 60.010908,46.348256 61.98614,46.068032 99.140393,45.99999 250.13639,45.99999 c 179.84313,0 187.80701,0.02068 190.94381,0.493493 26.07632,3.931482 47.19612,21.46876 55.45362,46.04708 1.30063,3.87131 2.30972,8.250067 2.97925,12.927937 0.46238,3.23056 0.48693,10.51718 0.48693,144.52077 0,134.00355 -0.0245,141.29017 -0.48693,144.52074 -1.7643,12.32669 -5.98375,22.65307 -13.23399,32.38789 -2.8452,3.82022 -9.521,10.53085 -13.23222,13.3012 -9.50177,7.09297 -19.42784,11.22673 -31.96666,13.31264 -2.52651,0.42031 -16.52297,0.45599 -189.71631,0.48364 -102.84371,0.0164 -187.479551,-0.0123 -188.07966,-0.0637 z m 373.76594,-45.80957 c 4.14446,-0.9914 7.74678,-3.02174 10.84372,-6.11176 2.72144,-2.71533 4.70745,-6.06268 5.9323,-9.99861 l 0.62008,-1.99252 0.0704,-116.30823 0.0704,-116.30817 -1.2979,0.94003 c -0.71383,0.51702 -44.13748,30.85975 -96.497,67.42829 -62.76148,43.8334 -95.87777,66.8035 -97.19081,67.41342 -3.27158,1.51969 -5.69943,2.03404 -9.60134,2.03404 -3.90191,0 -6.32976,-0.51435 -9.60133,-2.03404 -1.31307,-0.60992 -34.42935,-23.58002 -97.19082,-67.41342 C 90.848331,189.20264 47.424684,158.85991 46.710854,158.34289 l -1.297872,-0.94003 0.07038,116.30817 0.07038,116.30823 0.629569,2.02669 c 1.701091,5.47624 5.070348,10.04043 9.540152,12.92364 2.514157,1.62173 4.512656,2.50361 7.129759,3.14609 2.007147,0.49275 7.481178,0.50813 187.010398,0.52541 183.1619,0.0177 184.96433,0.0126 187.18656,-0.51894 z m -88.509,-231.93221 c 54.04705,-37.74546 99.46751,-69.47444 100.93436,-70.50883 l 2.66705,-1.8807 -0.73412,-1.3458 c -2.66048,-4.877217 -8.4958,-9.200167 -14.28352,-10.581577 l -2.31861,-0.5534 H 250 65.193668 l -2.318603,0.5534 c -5.786143,1.38102 -11.623104,5.70444 -14.281833,10.578487 l -0.732433,1.34271 12.485324,8.72609 C 205.95873,214.29027 249.64946,244.773 249.93233,244.79344 c 0.18783,0.0136 44.56182,-30.85801 98.60884,-68.6035 z"
     style="fill:#ffffff;stroke-width:0.27247182" />
</svg>
